<svg width="81" height="92" viewBox="0 0 81 92" fill="none" xmlns="http://www.w3.org/2000/svg"><g clip-path="url(#clip0_114838_61193)"><mask id="mask0_114838_61193" style="mask-type:luminance" maskUnits="userSpaceOnUse" x="-1" y="0" width="82" height="81"><path d="M69.1367 68.9858C84.9529 53.2044 84.9529 27.6175 69.1367 11.8361C53.3204 -3.94538 27.6773 -3.94538 11.861 11.8361C-3.9552 27.6175 -3.9552 53.2044 11.861 68.9858C27.6773 84.7673 53.3204 84.7673 69.1367 68.9858Z" fill="white"/></mask><g mask="url(#mask0_114838_61193)"><path d="M69.1367 68.9858C84.9529 53.2044 84.9529 27.6175 69.1367 11.8361C53.3204 -3.94538 27.6773 -3.94538 11.861 11.8361C-3.9552 27.6175 -3.9552 53.2044 11.861 68.9858C27.6773 84.7673 53.3204 84.7673 69.1367 68.9858Z" fill="#FFCE45"/><path d="M15.5204 67.2961C21.0741 64.4761 32.7296 58.4793 32.7296 58.4793L51.3758 57.9153L65.4184 66.3889C66.9949 67.3403 67.9586 69.0425 67.9586 70.8806V92.0034H12.6465V71.978C12.6465 70.004 13.7565 68.1965 15.5204 67.2995V67.2961Z" fill="#5181CE"/><path d="M32.9135 74.2204H23.6687V75.7901H32.9135V74.2204Z" fill="white"/><path d="M31.4937 48.3036V57.596L39.7135 63.005C40.8304 63.7388 42.2707 63.7626 43.408 63.0593L51.3589 58.1634L51.4747 47.8449L31.4937 48.3002V48.3036Z" fill="white"/><path d="M32.0692 36.6462C32.3413 33.9314 30.3562 31.5105 27.6354 31.2391C24.9146 30.9676 22.4885 32.9483 22.2164 35.6631C21.9444 38.378 23.9294 40.7988 26.6502 41.0702C29.371 41.3417 31.7972 39.361 32.0692 36.6462Z" fill="#EBEBEB"/><path d="M58.1923 37.282C58.8167 34.6257 57.1648 31.9673 54.5027 31.3443C51.8406 30.7213 49.1763 32.3696 48.5519 35.0258C47.9276 37.6821 49.5795 40.3404 52.2416 40.9635C54.9037 41.5865 57.5679 39.9382 58.1923 37.282Z" fill="#EBEBEB"/><path d="M57.2777 36.9237C57.6242 34.7842 56.1669 32.7694 54.0226 32.4237C51.8784 32.0779 49.8592 33.532 49.5127 35.6716C49.1662 37.8111 50.6235 39.8258 52.7677 40.1716C54.912 40.5174 56.9312 39.0632 57.2777 36.9237Z" fill="#1D2747"/><path d="M48.8255 50.9978H33.523C30.3018 50.9978 27.6935 48.3919 27.6935 45.1812L28.6265 19.21H53.7254L54.6584 45.1812C54.6584 48.3953 52.0467 50.9978 48.8289 50.9978H48.8255Z" fill="white"/><path d="M48.8254 50.9979H33.7375C34.7795 52.5743 36.5706 53.614 38.6034 53.614H51.4201L51.4508 50.3659C50.6608 50.7668 49.7687 50.9945 48.822 50.9945L48.8254 50.9979Z" fill="#1D2747"/><path d="M30.118 20.9088C30.1282 21.099 30.7445 21.5407 30.8909 21.6664C31.1803 21.9213 31.4834 22.1591 31.8001 22.3799C32.4232 22.8148 33.0872 23.1784 33.775 23.4977C34.9361 24.038 36.1586 24.3981 37.3742 24.7888C38.6647 25.1999 39.962 25.5873 41.29 25.8625C43.3705 26.294 45.4136 26.3076 47.5179 26.1716C49.3941 26.0493 51.2499 25.7266 53.0546 25.1931C53.2316 25.1422 53.4087 25.0878 53.5823 25.0335L54.3281 36.0349C54.6073 34.0643 55.8331 29.977 57.3177 28.6485C58.8023 27.32 60.2733 25.4785 59.8068 23.5453C59.5038 22.2916 58.4448 21.3471 58.0294 20.1273C57.505 18.5848 58.0498 16.9336 57.9817 15.3537C57.9238 13.9981 57.1917 12.8157 56.0136 12.1362C54.9001 11.4907 53.5483 11.348 52.268 11.511C51.587 11.5994 50.4769 11.9697 50.0921 11.1441C49.9321 10.8043 49.973 10.3491 49.6801 10.118C49.4792 9.95834 49.1898 9.96853 48.9378 10.0127C47.8686 10.2064 46.9152 9.82923 45.9414 9.41133C44.4227 8.76239 42.8121 8.78617 41.2355 8.4532C39.3491 8.05569 37.5478 8.07947 35.767 8.85752C34.6978 9.32299 33.7818 10.1282 33.1723 11.1169C32.9578 11.4635 32.001 14.1714 31.5277 13.9165C30.4244 13.322 30.0635 13.3321 28.824 13.1487C28.3065 13.0739 27.7548 13.0366 27.2849 13.2642C25.7969 13.9777 26.3519 16.3458 25.3338 17.6403C24.5711 18.6086 23.0116 18.8396 22.5212 19.971C21.8232 21.5951 23.9752 23.3109 23.5325 25.0199C23.41 25.4989 23.0899 25.9032 22.9366 26.3721C22.6098 27.3608 23.066 28.4582 23.7471 29.2465C24.4281 30.0381 25.3134 30.6191 26.0659 31.3394C27.302 32.5183 28.1737 34.0778 28.5278 35.7495C29.0113 35.2636 30.3359 25.645 30.1146 20.902L30.118 20.9088Z" fill="#1D2747"/><path d="M28.0715 20.2361C28.0715 20.2361 32.5152 29.2193 44.8688 27.3676C44.9437 27.3574 44.9403 27.2453 44.8654 27.2453C42.3865 27.1637 34.1326 26.3721 30.4176 19.6517L28.0749 20.2395L28.0715 20.2361Z" fill="#1D2747"/><path d="M30.0805 56.665L28.9534 64.9246L38.5115 71.4004L39.7169 63.0083L30.0805 56.665Z" fill="#EAEAEA"/><path d="M30.0804 56.665H31.4936V57.596L30.0804 56.665Z" fill="#1D2747"/><path d="M43.4114 63.0627L44.3954 71.4004L53.1431 65.3697L52.823 56.9742L43.4114 63.0627Z" fill="#EAEAEA"/><path d="M51.3759 56.9742H52.823L51.3759 57.912V56.9742Z" fill="#1D2747"/><path d="M30.4748 39.0587C32.0107 37.5262 32.0107 35.0415 30.4748 33.509C28.9389 31.9765 26.4488 31.9765 24.9129 33.509C23.377 35.0415 23.377 37.5262 24.9129 39.0587C26.4488 40.5912 28.9389 40.5912 30.4748 39.0587Z" fill="#1D2747"/><path d="M27.6935 37.7133V44.0464H37.3537" stroke="#1D2747" stroke-width="3" stroke-linecap="round" stroke-linejoin="round"/><path d="M27.6935 34.8661V22.6381C27.6935 22.6381 27.2304 16.9506 33.0905 16.9506H51.9955C53.3542 17.0287 55.4823 17.3515 55.4823 20.9937V34.8695" stroke="#5181CE" stroke-width="3" stroke-linecap="round" stroke-linejoin="round"/><path d="M38.3413 36.7755C38.3413 37.1866 38.0076 37.5196 37.5956 37.5196C37.1836 37.5196 36.8499 37.1866 36.8499 36.7755C36.8499 36.3644 37.1836 36.0314 37.5956 36.0314C38.0076 36.0314 38.3413 36.3644 38.3413 36.7755Z" fill="#1D2747"/><path d="M35.859 34.4958C35.859 34.4958 36.5332 33.5852 37.8816 33.5852C39.23 33.5852 39.9042 34.4958 39.9042 34.4958" stroke="#1D2747" stroke-miterlimit="10" stroke-linecap="round"/><path d="M47.4226 34.4958C47.4226 34.4958 48.0968 33.5852 49.4452 33.5852C50.7936 33.5852 51.4678 34.4958 51.4678 34.4958" stroke="#1D2747" stroke-miterlimit="10" stroke-linecap="round"/><path d="M50.3442 36.7755C50.3442 37.1866 50.0105 37.5196 49.5985 37.5196C49.1865 37.5196 48.8528 37.1866 48.8528 36.7755C48.8528 36.3644 49.1865 36.0314 49.5985 36.0314C50.0105 36.0314 50.3442 36.3644 50.3442 36.7755Z" fill="#1D2747"/><path d="M42.4682 38.0157C42.4376 38.984 42.4035 39.9523 42.3729 40.9206C42.3695 41.0531 42.3627 41.1924 42.2878 41.3011C42.1482 41.5118 41.8008 41.5764 41.777 41.8244C41.76 42.018 41.9643 42.1573 42.1516 42.1981C42.3388 42.2389 42.5499 42.2355 42.71 42.3408C42.8326 42.4224 42.9041 42.5549 43.0062 42.6602C43.2718 42.932 43.7485 42.9626 44.0482 42.7281C44.2116 42.6024 44.3274 42.4088 44.5181 42.3306C44.6713 42.2695 44.845 42.2898 44.9982 42.2253C45.291 42.1064 45.3694 41.6545 45.1344 41.4438C45.0765 41.3929 45.005 41.3555 44.9539 41.2978C44.879 41.2162 44.8484 41.1075 44.8245 40.9988C44.719 40.4755 44.7871 39.9319 44.8382 39.4019C44.9301 38.471 44.8824 37.2376 43.946 36.7042C43.6157 36.5139 43.1561 36.6023 42.8632 36.8333C42.5159 37.1085 42.4784 37.608 42.4682 38.0157Z" fill="#E06C85"/><path d="M40.4626 43.5027L46.6939 43.5401C46.6939 43.5401 45.7337 45.0758 43.3672 45.0758C41.0006 45.0758 40.4626 43.5027 40.4626 43.5027Z" stroke="#1D2747" stroke-miterlimit="10"/><path opacity="0.53" d="M37.3537 41.7904C37.3537 42.6636 36.6455 43.3703 35.7704 43.3703C34.8953 43.3703 34.187 42.6636 34.187 41.7904C34.187 40.9172 34.8953 40.2105 35.7704 40.2105C36.6455 40.2105 37.3537 40.9172 37.3537 41.7904Z" fill="#E06C85"/><path opacity="0.53" d="M53.6471 41.7904C53.6471 42.6636 52.9388 43.3703 52.0637 43.3703C51.1886 43.3703 50.4803 42.6636 50.4803 41.7904C50.4803 40.9172 51.1886 40.2105 52.0637 40.2105C52.9388 40.2105 53.6471 40.9172 53.6471 41.7904Z" fill="#E06C85"/><path opacity="0.6" d="M40.0676 31.7811H33.203C32.4 31.7811 31.749 32.4306 31.749 33.2318V40.0814C31.749 40.8826 32.4 41.5322 33.203 41.5322H40.0676C40.8706 41.5322 41.5216 40.8826 41.5216 40.0814V33.2318C41.5216 32.4306 40.8706 31.7811 40.0676 31.7811Z" fill="white"/><path opacity="0.6" d="M54.0319 31.7811H47.1672C46.3642 31.7811 45.7133 32.4306 45.7133 33.2318V40.0814C45.7133 40.8826 46.3642 41.5322 47.1672 41.5322H54.0319C54.8349 41.5322 55.4858 40.8826 55.4858 40.0814V33.2318C55.4858 32.4306 54.8349 31.7811 54.0319 31.7811Z" fill="white"/><path d="M40.0676 31.7811H33.203C32.4 31.7811 31.749 32.4306 31.749 33.2318V40.0814C31.749 40.8826 32.4 41.5322 33.203 41.5322H40.0676C40.8706 41.5322 41.5216 40.8826 41.5216 40.0814V33.2318C41.5216 32.4306 40.8706 31.7811 40.0676 31.7811Z" stroke="#1D2747" stroke-miterlimit="10"/><path d="M54.0319 31.7811H47.1672C46.3642 31.7811 45.7133 32.4306 45.7133 33.2318V40.0814C45.7133 40.8826 46.3642 41.5322 47.1672 41.5322H54.0319C54.8349 41.5322 55.4858 40.8826 55.4858 40.0814V33.2318C55.4858 32.4306 54.8349 31.7811 54.0319 31.7811Z" stroke="#1D2747" stroke-miterlimit="10"/><path d="M41.4944 35.8684C41.4944 35.8684 42.0528 34.8661 43.5749 34.8661C45.097 34.8661 45.7473 35.9227 45.7473 35.9227" stroke="#1D2747" stroke-miterlimit="10"/><path d="M38.7158 42.8878H36.7443C36.3531 42.8878 36.036 43.2042 36.036 43.5945V44.2774C36.036 44.6677 36.3531 44.9841 36.7443 44.9841H38.7158C39.107 44.9841 39.4241 44.6677 39.4241 44.2774V43.5945C39.4241 43.2042 39.107 42.8878 38.7158 42.8878Z" fill="#1D2747"/></g></g><defs><clipPath id="clip0_114838_61193"><rect width="81" height="92" fill="white"/></clipPath></defs></svg>