<svg width="385" height="286" viewBox="0 0 385 286" fill="none" xmlns="http://www.w3.org/2000/svg">
<rect x="60.3651" y="47.5644" width="257.431" height="189.009" stroke="#C6C6C6" stroke-width="2" stroke-linejoin="round" stroke-dasharray="3 3"/>
<rect width="268.285" height="202.583" fill="#F1F1F1"/>
<rect x="6.57019" y="29.5657" width="255.145" height="168.636" fill="white"/>
<rect x="27.3761" y="51.4672" width="211.343" height="122.645" rx="8" fill="#F1F1F1"/>
<rect x="244.194" y="13.1404" width="16.4256" height="4.38017" rx="2.18988" fill="#C4C4C4"/>
<rect x="43.2101" y="90.2784" width="78.8745" height="4.75148" rx="2.37552" fill="white"/>
<rect x="43.2101" y="137.793" width="78.8745" height="4.75148" rx="2.37552" fill="white"/>
<rect x="138.24" y="90.2784" width="78.8745" height="4.75148" rx="2.37552" fill="#5236FF"/>
<rect x="43.2101" y="82.6756" width="78.8745" height="4.75148" rx="2.37552" fill="white"/>
<rect x="43.2101" y="130.191" width="78.8745" height="4.75148" rx="2.37552" fill="#FFB422"/>
<rect x="138.24" y="82.6756" width="78.8745" height="4.75148" rx="2.37552" fill="white"/>
<rect x="43.2101" y="97.8806" width="78.8745" height="4.75148" rx="2.37552" fill="white"/>
<rect x="43.2101" y="145.395" width="78.8745" height="4.75148" rx="2.37552" fill="#FFB422"/>
<rect x="138.24" y="97.8806" width="78.8745" height="4.75148" rx="2.37552" fill="white"/>
<rect x="43.2101" y="105.483" width="44.6639" height="4.75148" rx="2.37552" fill="#5236FF"/>
<rect x="43.2101" y="152.998" width="44.6639" height="4.75148" rx="2.37552" fill="white"/>
<rect x="138.24" y="105.483" width="44.6639" height="4.75148" rx="2.37552" fill="white"/>
<circle cx="9.30779" cy="14.7832" r="2.7376" fill="#C4C4C4"/>
<circle cx="16.9731" cy="14.7832" r="2.7376" fill="#C4C4C4"/>
<circle cx="24.6386" cy="14.7832" r="2.7376" fill="#C4C4C4"/>
<g filter="url(#filter0_d_1229_834)">
<rect x="160.096" y="119.737" width="198.901" height="134.69" rx="15" fill="white"/>
</g>
<line x1="201.709" y1="187.668" x2="320.696" y2="187.668" stroke="#F1F1F1"/>
<line x1="200.009" y1="210.653" x2="318.996" y2="210.653" stroke="#F1F1F1"/>
<line x1="200.009" y1="176.175" x2="318.996" y2="176.175" stroke="#F1F1F1"/>
<line x1="200.009" y1="199.161" x2="318.996" y2="199.161" stroke="#F1F1F1"/>
<line x1="200.009" y1="164.682" x2="318.996" y2="164.682" stroke="#F1F1F1"/>
<line x1="209.008" y1="153.689" x2="209.008" y2="217.618" stroke="#F1F1F1"/>
<line x1="249.804" y1="153.689" x2="249.804" y2="217.618" stroke="#F1F1F1"/>
<line x1="290.599" y1="153.689" x2="290.599" y2="217.618" stroke="#F1F1F1"/>
<line x1="222.607" y1="152.971" x2="222.607" y2="216.899" stroke="#F1F1F1"/>
<line x1="263.402" y1="152.971" x2="263.402" y2="216.899" stroke="#F1F1F1"/>
<line x1="304.198" y1="152.971" x2="304.198" y2="216.899" stroke="#F1F1F1"/>
<line x1="236.205" y1="152.971" x2="236.205" y2="216.899" stroke="#F1F1F1"/>
<line x1="277.001" y1="152.971" x2="277.001" y2="216.899" stroke="#F1F1F1"/>
<line x1="317.797" y1="152.971" x2="317.797" y2="216.899" stroke="#F1F1F1"/>
<rect x="184.804" y="154.898" width="5.70177" height="2.85089" rx="1.42531" fill="#E0DBFF"/>
<rect x="185.754" y="211.916" width="5.70177" height="2.85089" rx="1.42531" fill="#E0DBFF"/>
<rect x="184.804" y="183.407" width="5.70177" height="2.85089" rx="1.42531" fill="#E0DBFF"/>
<rect x="197.158" y="234.723" width="5.70177" height="2.85089" rx="1.42531" transform="rotate(-90 197.158 234.723)" fill="#E0DBFF"/>
<rect x="225.667" y="234.723" width="5.70177" height="2.85089" rx="1.42531" transform="rotate(-90 225.667 234.723)" fill="#E0DBFF"/>
<rect x="254.176" y="234.723" width="5.70177" height="2.85089" rx="1.42531" transform="rotate(-90 254.176 234.723)" fill="#E0DBFF"/>
<rect x="282.684" y="234.723" width="5.70177" height="2.85089" rx="1.42531" transform="rotate(-90 282.684 234.723)" fill="#E0DBFF"/>
<rect x="311.193" y="234.723" width="5.70177" height="2.85089" rx="1.42531" transform="rotate(-90 311.193 234.723)" fill="#E0DBFF"/>
<rect x="184.804" y="169.153" width="5.70177" height="2.85089" rx="1.42531" fill="#E0DBFF"/>
<rect x="185.754" y="226.17" width="5.70177" height="2.85089" rx="1.42531" fill="#E0DBFF"/>
<rect x="184.804" y="197.661" width="5.70177" height="2.85089" rx="1.42531" fill="#E0DBFF"/>
<rect x="211.412" y="234.723" width="5.70177" height="2.85089" rx="1.42531" transform="rotate(-90 211.412 234.723)" fill="#E0DBFF"/>
<rect x="239.921" y="234.723" width="5.70177" height="2.85089" rx="1.42531" transform="rotate(-90 239.921 234.723)" fill="#E0DBFF"/>
<rect x="268.43" y="234.723" width="5.70177" height="2.85089" rx="1.42531" transform="rotate(-90 268.43 234.723)" fill="#E0DBFF"/>
<rect x="296.939" y="234.723" width="5.70177" height="2.85089" rx="1.42531" transform="rotate(-90 296.939 234.723)" fill="#E0DBFF"/>
<rect x="325.448" y="234.723" width="5.70177" height="2.85089" rx="1.42531" transform="rotate(-90 325.448 234.723)" fill="#E0DBFF"/>
<path d="M263.534 194.336C229.688 182.189 207.43 206.19 199.763 220.953C199.425 221.605 199.907 222.369 200.641 222.369H320.646C321.199 222.369 321.647 221.921 321.647 221.369V156.928C321.647 155.739 319.615 155.455 319.228 156.579C312.033 177.492 294.153 205.324 263.534 194.336Z" fill="#4CAF4F"/>
<path d="M189.556 147.296V231.872H331.625" stroke="#E0DBFF" stroke-width="3"/>
<defs>
<filter id="filter0_d_1229_834" x="144.095" y="108.736" width="240.905" height="176.694" filterUnits="userSpaceOnUse" color-interpolation-filters="sRGB">
<feFlood flood-opacity="0" result="BackgroundImageFix"/>
<feColorMatrix in="SourceAlpha" type="matrix" values="0 0 0 0 0 0 0 0 0 0 0 0 0 0 0 0 0 0 127 0" result="hardAlpha"/>
<feOffset dx="5" dy="10"/>
<feGaussianBlur stdDeviation="10.5"/>
<feComposite in2="hardAlpha" operator="out"/>
<feColorMatrix type="matrix" values="0 0 0 0 0.700272 0 0 0 0 0.700272 0 0 0 0 0.700272 0 0 0 0.25 0"/>
<feBlend mode="normal" in2="BackgroundImageFix" result="effect1_dropShadow_1229_834"/>
<feBlend mode="normal" in="SourceGraphic" in2="effect1_dropShadow_1229_834" result="shape"/>
</filter>
</defs>
</svg>
