<svg width="47" height="66" viewBox="0 0 47 66" fill="none" xmlns="http://www.w3.org/2000/svg">
<path d="M23.8989 33.9477C30.7798 33.9477 36.3579 28.3697 36.3579 21.4888C36.3579 14.6079 30.7798 9.02979 23.8989 9.02979C17.018 9.02979 11.4399 14.6079 11.4399 21.4888C11.4399 28.3697 17.018 33.9477 23.8989 33.9477Z" fill="#8ADE8C"/>
<path d="M45.1188 21.581C45.1188 23.6717 41.0134 25.0814 40.4013 26.9662C39.7681 28.9197 42.2376 32.4729 41.0556 34.099C39.863 35.7409 35.7102 34.4844 34.0691 35.6776C32.4438 36.8602 32.3647 41.2053 30.4123 41.8389C28.5284 42.4513 25.9217 39.0037 23.8321 39.0037C21.7425 39.0037 19.1357 42.4513 17.2519 41.8389C15.2995 41.2053 15.2203 36.8602 13.5951 35.6776C11.954 34.4844 7.80112 35.7409 6.60856 34.099C5.42655 32.4729 7.8961 28.9197 7.26288 26.9662C6.65077 25.0814 2.54541 23.6665 2.54541 21.581C2.54541 19.4956 6.65077 18.0806 7.26288 16.1958C7.8961 14.2424 5.42655 10.6892 6.60856 9.06305C7.80112 7.4211 11.954 8.67764 13.5951 7.48445C15.2203 6.30182 15.2995 1.9567 17.2519 1.32315C19.1357 0.710711 21.7425 4.1583 23.8321 4.1583C25.9217 4.1583 28.5284 0.710711 30.4123 1.32315C32.3647 1.9567 32.4438 6.30182 34.0691 7.48445C35.7102 8.67764 39.863 7.4211 41.0556 9.06305C42.2376 10.6892 39.7681 14.2424 40.4013 16.1958C41.0081 18.0754 45.1188 19.4903 45.1188 21.581Z" stroke="white" stroke-width="2.5" stroke-miterlimit="10"/>
<path d="M23.5 42.7311L32.4231 63.1262C33.0194 64.4884 34.8663 64.6415 35.3253 63.3691L36.7976 58.4749C37.0825 57.6777 38.0007 57.3662 38.8239 57.7885L43.631 60.5075C44.945 61.1781 46.1903 59.9901 45.5993 58.6333L35.2304 34.9331" stroke="white" stroke-width="2.5" stroke-miterlimit="10"/>
<path d="M24.9879 39.331L14.5768 63.1262C13.9805 64.4884 12.1336 64.6415 11.6745 63.3691L10.2023 58.4749C9.91733 57.6777 8.99916 57.3662 8.17598 57.7885L3.3688 60.5075C2.05488 61.1781 0.809549 59.9901 1.40055 58.6333L11.7748 34.9331" stroke="white" stroke-width="2.5" stroke-miterlimit="10"/>
</svg>
