<svg width="53" height="74" viewBox="0 0 53 74" fill="none" xmlns="http://www.w3.org/2000/svg">
<path d="M51.6599 26.7262C51.6599 12.0558 39.3873 0.282748 24.6577 1.32078C12.2877 2.18799 2.24474 12.2792 1.3282 24.7815C0.52217 35.7925 6.63893 45.4501 15.7393 49.7796C17.1044 50.43 17.9754 51.8162 17.9754 53.3404V59.3781V63.9375C17.9754 68.3393 21.1671 72.2023 25.4962 72.6885C30.612 73.2601 34.9476 69.2262 34.9476 64.1675V53.3404C34.9476 51.8162 35.8252 50.43 37.1902 49.7796C45.7381 45.6998 51.6599 36.9159 51.6599 26.7262Z" stroke="white" stroke-width="2.5" stroke-miterlimit="10"/>
<path d="M34.9412 59.0299H17.969" stroke="white" stroke-width="2.5" stroke-miterlimit="10"/>
<path d="M26.4583 28.362C21.5246 28.362 17.5075 32.4222 17.5075 37.4086V42.6776C20.1271 44.2544 23.1887 45.1676 26.4583 45.1676C29.728 45.1676 32.7896 44.2609 35.4092 42.6776V37.4086C35.4092 32.4222 31.392 28.362 26.4583 28.362Z" fill="#8ADE8C"/>
<path d="M13.0936 37.4085C13.0936 29.9584 19.0869 23.901 26.4582 23.901C33.8295 23.901 39.8228 29.9584 39.8228 37.4085V38.8999C42.4099 35.8121 43.9699 31.8242 43.9699 27.4684C43.9699 17.6926 36.1306 9.76941 26.4582 9.76941C16.7858 9.76941 8.94646 17.6926 8.94646 27.4684C8.94646 31.8308 10.5065 35.8187 13.0936 38.8999V37.4085Z" fill="#8ADE8C"/>
</svg>
