<svg width="61" height="67" viewBox="0 0 61 67" fill="none" xmlns="http://www.w3.org/2000/svg">
<path d="M54.802 65.7352C57.921 65.7352 60.1952 62.8119 59.4545 59.7907C56.781 48.9049 46.9206 40.8213 35.168 40.8213C23.4153 40.8213 13.5491 48.9049 10.8814 59.7965C10.1407 62.8177 12.4149 65.7352 15.5339 65.7352H54.802Z" stroke="white" stroke-width="2.5" stroke-miterlimit="10"/>
<path d="M35.1681 35.3784C42.6496 35.3784 48.7146 29.3352 48.7146 21.8807C48.7146 14.4261 42.6496 8.38303 35.1681 8.38303C27.6866 8.38303 21.6216 14.4261 21.6216 21.8807C21.6216 29.3352 27.6866 35.3784 35.1681 35.3784Z" stroke="white" stroke-width="2.5" stroke-miterlimit="10"/>
<path d="M6.48874 57.8941C8.72238 48.7957 14.4743 41.6519 24.572 38.3308C13.1955 38.7114 2.75057 45.9474 0.140796 56.5737C-0.599894 59.595 1.67426 62.5124 4.79325 62.5124H7.3278C6.44823 61.2209 6.07789 59.5719 6.48874 57.8941Z" fill="#8ADE8C"/>
<path d="M17.5637 19.1942C17.5637 10.8454 24.3572 4.0764 32.7363 4.0764C35.6991 4.0764 38.4651 4.92397 40.7971 6.38847C38.222 2.5427 33.8242 0 28.8303 0C20.9026 0 14.4737 6.40577 14.4737 14.3106C14.4737 18.1103 15.9666 21.564 18.3912 24.1297C17.8589 22.5787 17.5637 20.924 17.5637 19.1942Z" fill="#8ADE8C"/>
</svg>
