<svg width="50" height="54" viewBox="0 0 50 54" fill="none" xmlns="http://www.w3.org/2000/svg">
<path d="M42.9799 37.17L34.2836 45.8397C33.1695 46.9498 31.6685 47.5695 30.0953 47.5695H7.18358C3.90826 47.5695 1.25191 44.9102 1.25191 41.6313V7.19006C1.25191 3.91117 3.90826 1.25191 7.18358 1.25191H38.7917C42.067 1.25191 44.7233 3.91117 44.7233 7.19006V32.9616C44.7285 34.5417 44.0992 36.0546 42.9799 37.17Z" stroke="white" stroke-width="2.5" stroke-miterlimit="10"/>
<path d="M48.2523 42.7104L39.556 51.3801C38.4419 52.4903 36.9409 53.1099 35.3677 53.1099H12.4612C9.18584 53.1099 6.52948 50.4506 6.52948 47.1718V12.7305C6.52948 9.45159 9.18584 6.79233 12.4612 6.79233H44.0692C47.3445 6.79233 50.0009 9.45159 50.0009 12.7305V38.5021C50.0009 40.0821 49.3716 41.5951 48.2523 42.7104Z" fill="#8ADE8C"/>
<path d="M14.9994 20.8309C14.9994 20.1866 15.5218 19.6642 16.1661 19.6642H41.0559C41.7003 19.6642 42.2226 20.1866 42.2226 20.8309C42.2226 21.4753 41.7003 21.9977 41.0559 21.9977H16.1661C15.5218 21.9977 14.9994 21.4753 14.9994 20.8309Z" fill="white"/>
<path d="M14.9994 26.276C14.9994 25.6317 15.5218 25.1093 16.1661 25.1093H41.0559C41.7003 25.1093 42.2226 25.6317 42.2226 26.276C42.2226 26.9204 41.7003 27.4427 41.0559 27.4427H16.1661C15.5218 27.4427 14.9994 26.9204 14.9994 26.276Z" fill="white"/>
<path d="M14.9994 31.7205C14.9994 31.0761 15.5218 30.5537 16.1661 30.5537H41.0559C41.7003 30.5537 42.2226 31.0761 42.2226 31.7205C42.2226 32.3648 41.7003 32.8872 41.0559 32.8872H16.1661C15.5218 32.8872 14.9994 32.3648 14.9994 31.7205Z" fill="white"/>
<path d="M14.9994 37.165C14.9994 36.5207 15.5218 35.9983 16.1661 35.9983H28.611C29.2554 35.9983 29.7777 36.5207 29.7777 37.165C29.7777 37.8094 29.2554 38.3317 28.611 38.3317H16.1661C15.5218 38.3317 14.9994 37.8094 14.9994 37.165Z" fill="white"/>
</svg>
