<svg width="55" height="55" viewBox="0 0 55 55" fill="none" xmlns="http://www.w3.org/2000/svg">
<path d="M27.5 2.04102C33.3731 2.04542 39.0642 4.07968 43.6094 7.79925C48.1545 11.5188 51.2743 16.6951 52.4404 22.4513C53.6065 28.2075 52.7472 34.1898 50.0079 39.385C47.2687 44.5802 42.818 48.669 37.4097 50.9588C31.1973 53.5364 24.2174 53.5517 17.9937 51.0014C11.7701 48.4511 6.80802 43.5423 4.19074 37.3465C1.57346 31.1507 1.5135 24.1711 4.02395 17.9312C6.53441 11.6914 11.4114 6.69806 17.5903 4.04121C20.7253 2.71433 24.0958 2.03401 27.5 2.04102ZM27.5 0C12.3127 0 0 12.3127 0 27.5C0 42.6873 12.3127 55 27.5 55C42.6873 55 55 42.6873 55 27.5C55 12.3127 42.6873 0 27.5 0Z" fill="#9000F9"/>
<path d="M40.7292 26.8729L32.8427 19.2807C32.7574 19.194 32.6546 19.1245 32.5407 19.0763C32.4267 19.0281 32.3037 19.0022 32.1791 19.0001C32.0544 18.9981 31.9306 19.0198 31.8149 19.0642C31.6992 19.1085 31.594 19.1745 31.5055 19.2583C31.417 19.3421 31.347 19.442 31.2996 19.5521C31.2522 19.6621 31.2283 19.7801 31.2295 19.8991C31.2307 20.0181 31.2568 20.1357 31.3063 20.2449C31.3559 20.3541 31.4279 20.4527 31.518 20.5349L37.8286 26.6092H14.9333C14.6858 26.6092 14.4484 26.703 14.2733 26.8701C14.0983 27.0372 14 27.2637 14 27.5C14 27.7363 14.0983 27.9628 14.2733 28.1299C14.4484 28.297 14.6858 28.3908 14.9333 28.3908H37.8277L31.5171 34.4651C31.427 34.5473 31.355 34.6459 31.3054 34.7551C31.2559 34.8643 31.2298 34.9819 31.2286 35.1009C31.2274 35.2199 31.2513 35.3379 31.2987 35.4479C31.3461 35.558 31.4161 35.6579 31.5046 35.7417C31.5931 35.8255 31.6983 35.8915 31.814 35.9358C31.9297 35.9802 32.0535 36.0019 32.1782 35.9999C32.3028 35.9978 32.4258 35.9719 32.5398 35.9237C32.6537 35.8755 32.7565 35.806 32.8418 35.7193L40.7292 28.1271C40.9027 27.9604 41 27.735 41 27.5C41 27.265 40.9027 27.0396 40.7292 26.8729Z" fill="#9000F9"/>
</svg>
