<svg width="269" height="203" viewBox="0 0 269 203" fill="none" xmlns="http://www.w3.org/2000/svg">
<rect width="268.838" height="203" fill="#F1F1F1"/>
<rect x="6.58397" y="29.6266" width="255.67" height="168.984" fill="white"/>
<rect x="27.4325" y="51.5732" width="211.778" height="122.897" rx="8" fill="#F1F1F1"/>
<rect x="244.697" y="13.1674" width="16.4595" height="4.38919" rx="2.18988" fill="#C4C4C4"/>
<rect x="123.994" y="130.578" width="47.1838" height="4.38919" rx="2.18988" fill="white"/>
<rect x="39.5028" y="72.4217" width="47.1838" height="4.38919" rx="2.18988" fill="white"/>
<rect x="181.054" y="130.578" width="47.1838" height="4.38919" rx="2.18988" fill="white"/>
<rect x="123.994" y="138.259" width="47.1838" height="4.38919" rx="2.18988" fill="white"/>
<rect x="39.5028" y="80.1022" width="47.1838" height="4.38919" rx="2.18988" fill="white"/>
<rect x="181.054" y="138.259" width="47.1838" height="4.38919" rx="2.18988" fill="white"/>
<rect x="123.994" y="145.94" width="26.3351" height="4.38919" rx="2.18988" fill="white"/>
<rect x="39.5028" y="87.7838" width="26.3351" height="4.38919" rx="2.18988" fill="white"/>
<rect x="181.054" y="145.94" width="26.3351" height="4.38919" rx="2.18988" fill="white"/>
<circle cx="9.32721" cy="14.8131" r="2.74324" fill="#C4C4C4"/>
<circle cx="17.0083" cy="14.8131" r="2.74324" fill="#C4C4C4"/>
<circle cx="24.6893" cy="14.8131" r="2.74324" fill="#C4C4C4"/>
</svg>
