<svg width="22" height="22" viewBox="0 0 22 22" fill="none" xmlns="http://www.w3.org/2000/svg">
<g clip-path="url(#clip0_1208_3907)">
<path d="M13.7955 4.58366C14.6908 4.75834 15.5137 5.19623 16.1587 5.84127C16.8038 6.4863 17.2416 7.30915 17.4163 8.20449L13.7955 4.58366ZM13.7955 0.916992C15.6557 1.12364 17.3903 1.95665 18.7145 3.27925C20.0388 4.60185 20.874 6.33542 21.083 8.19533L13.7955 0.916992ZM20.1663 15.5103V18.2603C20.1674 18.5156 20.1151 18.7683 20.0128 19.0022C19.9105 19.2361 19.7605 19.4461 19.5724 19.6187C19.3843 19.7913 19.1622 19.9227 18.9203 20.0045C18.6785 20.0863 18.4222 20.1166 18.168 20.0937C15.3473 19.7872 12.6377 18.8233 10.2572 17.2795C8.04233 15.8721 6.16455 13.9943 4.75715 11.7795C3.20797 9.3881 2.24388 6.6654 1.94299 3.83199C1.92008 3.5785 1.95021 3.32302 2.03145 3.08181C2.11269 2.84061 2.24326 2.61896 2.41486 2.43098C2.58645 2.243 2.79531 2.09281 3.02813 1.98997C3.26095 1.88713 3.51263 1.8339 3.76715 1.83366H6.51715C6.96202 1.82928 7.3933 1.98681 7.7306 2.2769C8.06791 2.56698 8.28822 2.96982 8.35049 3.41033C8.46656 4.29039 8.68182 5.15449 8.99215 5.98616C9.11549 6.31426 9.14218 6.67083 9.06907 7.01363C8.99596 7.35643 8.82611 7.67109 8.57965 7.92033L7.41549 9.08449C8.72041 11.3794 10.6206 13.2796 12.9155 14.5845L14.0797 13.4203C14.3289 13.1739 14.6435 13.004 14.9863 12.9309C15.3291 12.8578 15.6857 12.8845 16.0138 13.0078C16.8455 13.3182 17.7096 13.5334 18.5897 13.6495C19.0349 13.7123 19.4416 13.9366 19.7323 14.2797C20.023 14.6228 20.1775 15.0608 20.1663 15.5103Z" stroke="#5236FF" stroke-width="2" stroke-linecap="round" stroke-linejoin="round"/>
</g>
<defs>
<clipPath id="clip0_1208_3907">
<rect width="22" height="22" fill="white"/>
</clipPath>
</defs>
</svg>
