<svg width="1920" height="1043" viewBox="0 0 1920 1043" fill="none" xmlns="http://www.w3.org/2000/svg">
<mask id="mask0_0_8" style="mask-type:alpha" maskUnits="userSpaceOnUse" x="0" y="0" width="1920" height="1043">
<rect width="1920" height="1043" fill="white"/>
</mask>
<g mask="url(#mask0_0_8)">
<path d="M986.655 282.216C986.655 573.664 749.78 809.932 457.577 809.932C165.375 809.932 -71.5 573.664 -71.5 282.216C-71.5 -9.23232 165.375 -245.5 457.577 -245.5C749.78 -245.5 986.655 -9.23232 986.655 282.216Z" stroke="#E3E3E3"/>
<path d="M2247.17 474.157C2247.17 810.705 1973.64 1083.53 1636.22 1083.53C1298.8 1083.53 1025.27 810.705 1025.27 474.157C1025.27 137.609 1298.8 -135.219 1636.22 -135.219C1973.64 -135.219 2247.17 137.609 2247.17 474.157ZM2062.77 435.405C2062.77 670.377 1871.8 860.862 1636.22 860.862C1400.64 860.862 1209.66 670.377 1209.66 435.405C1209.66 200.433 1400.64 9.94824 1636.22 9.94824C1871.8 9.94824 2062.77 200.433 2062.77 435.405ZM1636.22 861.862C1872.35 861.862 2063.77 670.932 2063.77 435.405C2063.77 199.878 1872.35 8.94824 1636.22 8.94824C1400.09 8.94824 1208.66 199.878 1208.66 435.405C1208.66 670.932 1400.09 861.862 1636.22 861.862Z" stroke="#E3E3E3"/>
</g>
</svg>
