<svg width="50" height="54" viewBox="0 0 50 54" fill="none" xmlns="http://www.w3.org/2000/svg">
<path d="M42.9799 37.17L34.2836 45.8397C33.1695 46.9498 31.6685 47.5695 30.0953 47.5695H7.18358C3.90826 47.5695 1.25191 44.9102 1.25191 41.6313V7.19006C1.25191 3.91117 3.90826 1.25191 7.18358 1.25191H38.7917C42.067 1.25191 44.7233 3.91117 44.7233 7.19006V32.9616C44.7285 34.5417 44.0992 36.0546 42.9799 37.17Z" stroke="white" stroke-width="2.5" stroke-miterlimit="10"/>
<path d="M48.2514 42.7104L39.555 51.3801C38.4409 52.4903 36.9399 53.1099 35.3667 53.1099H12.4602C9.18486 53.1099 6.5285 50.4506 6.5285 47.1718V12.7305C6.5285 9.45159 9.18486 6.79233 12.4602 6.79233H44.0682C47.3436 6.79233 49.9999 9.45159 49.9999 12.7305V38.5021C49.9999 40.0821 49.3706 41.5951 48.2514 42.7104Z" fill="#8ADE8C"/>
<path d="M14.9984 20.8309C14.9984 20.1866 15.5208 19.6642 16.1651 19.6642H41.055C41.6993 19.6642 42.2217 20.1866 42.2217 20.8309C42.2217 21.4753 41.6993 21.9977 41.055 21.9977H16.1651C15.5208 21.9977 14.9984 21.4753 14.9984 20.8309Z" fill="white"/>
<path d="M14.9984 26.276C14.9984 25.6317 15.5208 25.1093 16.1651 25.1093H41.055C41.6993 25.1093 42.2217 25.6317 42.2217 26.276C42.2217 26.9204 41.6993 27.4427 41.055 27.4427H16.1651C15.5208 27.4427 14.9984 26.9204 14.9984 26.276Z" fill="white"/>
<path d="M14.9989 31.7205C14.9989 31.0761 15.5213 30.5537 16.1656 30.5537H41.0554C41.6998 30.5537 42.2222 31.0761 42.2222 31.7205C42.2222 32.3648 41.6998 32.8872 41.0554 32.8872H16.1656C15.5213 32.8872 14.9989 32.3648 14.9989 31.7205Z" fill="white"/>
<path d="M14.9989 37.165C14.9989 36.5207 15.5213 35.9983 16.1656 35.9983H28.6105C29.2549 35.9983 29.7772 36.5207 29.7772 37.165C29.7772 37.8094 29.2549 38.3317 28.6105 38.3317H16.1656C15.5213 38.3317 14.9989 37.8094 14.9989 37.165Z" fill="white"/>
</svg>
