<svg width="61" height="67" viewBox="0 0 61 67" fill="none" xmlns="http://www.w3.org/2000/svg">
<path d="M54.8015 65.7352C57.9205 65.7352 60.1947 62.8119 59.454 59.7907C56.7805 48.9049 46.9201 40.8213 35.1675 40.8213C23.4148 40.8213 13.5486 48.9049 10.8809 59.7965C10.1402 62.8177 12.4144 65.7352 15.5334 65.7352H54.8015Z" stroke="white" stroke-width="2.5" stroke-miterlimit="10"/>
<path d="M35.1671 35.3784C42.6486 35.3784 48.7136 29.3352 48.7136 21.8807C48.7136 14.4261 42.6486 8.38303 35.1671 8.38303C27.6856 8.38303 21.6206 14.4261 21.6206 21.8807C21.6206 29.3352 27.6856 35.3784 35.1671 35.3784Z" stroke="white" stroke-width="2.5" stroke-miterlimit="10"/>
<path d="M6.48874 57.8941C8.72238 48.7957 14.4743 41.6519 24.572 38.3308C13.1955 38.7114 2.75057 45.9474 0.140796 56.5737C-0.599894 59.595 1.67426 62.5124 4.79325 62.5124H7.3278C6.44823 61.2209 6.07789 59.5719 6.48874 57.8941Z" fill="#8ADE8C"/>
<path d="M17.5642 19.1942C17.5642 10.8454 24.3577 4.0764 32.7368 4.0764C35.6996 4.0764 38.4656 4.92397 40.7976 6.38847C38.2225 2.5427 33.8247 0 28.8308 0C20.9031 0 14.4742 6.40577 14.4742 14.3106C14.4742 18.1103 15.9671 21.564 18.3917 24.1297C17.8593 22.5787 17.5642 20.924 17.5642 19.1942Z" fill="#8ADE8C"/>
</svg>
