<svg width="55" height="55" viewBox="0 0 55 55" fill="none" xmlns="http://www.w3.org/2000/svg">
<path d="M27.5 2.04102C21.6269 2.04542 15.9358 4.07968 11.3906 7.79925C6.84549 11.5188 3.72567 16.6951 2.55959 22.4513C1.39351 28.2075 2.25285 34.1898 4.99206 39.385C7.73126 44.5802 12.182 48.669 17.5903 50.9588C23.8027 53.5364 30.7826 53.5517 37.0063 51.0014C43.2299 48.4511 48.192 43.5423 50.8093 37.3465C53.4265 31.1507 53.4865 24.1711 50.976 17.9312C48.4656 11.6914 43.5886 6.69806 37.4097 4.04121C34.2747 2.71433 30.9042 2.03401 27.5 2.04102ZM27.5 0C42.6873 0 55 12.3127 55 27.5C55 42.6873 42.6873 55 27.5 55C12.3127 55 0 42.6873 0 27.5C0 12.3127 12.3127 0 27.5 0Z" fill="#9000F9"/>
<path d="M14.2708 26.8729L22.1573 19.2807C22.2426 19.194 22.3454 19.1245 22.4593 19.0763C22.5733 19.0281 22.6963 19.0022 22.8209 19.0001C22.9456 18.9981 23.0694 19.0198 23.1851 19.0642C23.3008 19.1085 23.406 19.1745 23.4945 19.2583C23.583 19.3421 23.653 19.442 23.7004 19.5521C23.7478 19.6621 23.7717 19.7801 23.7705 19.8991C23.7693 20.0181 23.7432 20.1357 23.6937 20.2449C23.6441 20.3541 23.5721 20.4527 23.482 20.5349L17.1714 26.6092H40.0667C40.3142 26.6092 40.5516 26.703 40.7267 26.8701C40.9017 27.0372 41 27.2637 41 27.5C41 27.7363 40.9017 27.9628 40.7267 28.1299C40.5516 28.297 40.3142 28.3908 40.0667 28.3908H17.1723L23.4829 34.4651C23.573 34.5473 23.645 34.6459 23.6946 34.7551C23.7441 34.8643 23.7702 34.9819 23.7714 35.1009C23.7726 35.2199 23.7487 35.3379 23.7013 35.4479C23.6539 35.558 23.5839 35.6579 23.4954 35.7417C23.4069 35.8255 23.3017 35.8915 23.186 35.9358C23.0703 35.9802 22.9465 36.0019 22.8218 35.9999C22.6972 35.9978 22.5742 35.9719 22.4602 35.9237C22.3463 35.8755 22.2435 35.806 22.1582 35.7193L14.2708 28.1271C14.0973 27.9604 14 27.735 14 27.5C14 27.265 14.0973 27.0396 14.2708 26.8729Z" fill="#9000F9"/>
</svg>
