<svg width="47" height="66" viewBox="0 0 47 66" fill="none" xmlns="http://www.w3.org/2000/svg">
<path d="M23.9004 33.9477C30.7813 33.9477 36.3593 28.3697 36.3593 21.4888C36.3593 14.6079 30.7813 9.02979 23.9004 9.02979C17.0195 9.02979 11.4414 14.6079 11.4414 21.4888C11.4414 28.3697 17.0195 33.9477 23.9004 33.9477Z" fill="#8ADE8C"/>
<path d="M45.1202 21.581C45.1202 23.6717 41.0149 25.0814 40.4027 26.9662C39.7695 28.9197 42.2391 32.4729 41.0571 34.099C39.8645 35.7409 35.7117 34.4844 34.0706 35.6776C32.4453 36.8602 32.3662 41.2053 30.4137 41.8389C28.5299 42.4513 25.9232 39.0037 23.8335 39.0037C21.7439 39.0037 19.1372 42.4513 17.2534 41.8389C15.3009 41.2053 15.2218 36.8602 13.5965 35.6776C11.9554 34.4844 7.80258 35.7409 6.61002 34.099C5.42802 32.4729 7.89757 28.9197 7.26435 26.9662C6.65224 25.0814 2.54688 23.6665 2.54688 21.581C2.54688 19.4956 6.65224 18.0806 7.26435 16.1958C7.89757 14.2424 5.42802 10.6892 6.61002 9.06305C7.80258 7.4211 11.9554 8.67764 13.5965 7.48445C15.2218 6.30182 15.3009 1.9567 17.2534 1.32315C19.1372 0.710711 21.7439 4.1583 23.8335 4.1583C25.9232 4.1583 28.5299 0.710711 30.4137 1.32315C32.3662 1.9567 32.4453 6.30182 34.0706 7.48445C35.7117 8.67764 39.8645 7.4211 41.0571 9.06305C42.2391 10.6892 39.7695 14.2424 40.4027 16.1958C41.0096 18.0754 45.1202 19.4903 45.1202 21.581Z" stroke="white" stroke-width="2.5" stroke-miterlimit="10"/>
<path d="M23.5 42.7311L32.4231 63.1262C33.0194 64.4884 34.8663 64.6415 35.3253 63.3691L36.7976 58.4749C37.0825 57.6777 38.0007 57.3662 38.8239 57.7885L43.631 60.5075C44.945 61.1781 46.1903 59.9901 45.5993 58.6333L35.2304 34.9331" stroke="white" stroke-width="2.5" stroke-miterlimit="10"/>
<path d="M24.9884 39.331L14.5772 63.1262C13.981 64.4884 12.1341 64.6415 11.675 63.3691L10.2028 58.4749C9.91782 57.6777 8.99965 57.3662 8.17647 57.7885L3.36929 60.5075C2.05537 61.1781 0.810037 59.9901 1.40104 58.6333L11.7753 34.9331" stroke="white" stroke-width="2.5" stroke-miterlimit="10"/>
</svg>
